<svg height="512pt" viewBox="0 0 512 512" width="512pt" xmlns="http://www.w3.org/2000/svg" xmlns:xlink="http://www.w3.org/1999/xlink"><linearGradient id="a" gradientUnits="userSpaceOnUse" x1="74.9807" x2="437.0193" y1="74.9807" y2="437.0193"><stop offset="0" stop-color="#e3eff3"/><stop offset="1" stop-color="#c6e2e7"/></linearGradient><linearGradient id="b"><stop offset="0" stop-color="#5a5a5a"/><stop offset="1" stop-color="#444"/></linearGradient><linearGradient id="c" gradientUnits="userSpaceOnUse" x1="118.3098" x2="393.6902" xlink:href="#b" y1="118.3098" y2="393.6902"/><linearGradient id="d" gradientUnits="userSpaceOnUse" x1="199.1024" x2="312.8976" xlink:href="#b" y1="199.1024" y2="312.8976"/><linearGradient id="e"><stop offset="0" stop-color="#67a2f9"/><stop offset="1" stop-color="#567ee2"/></linearGradient><linearGradient id="f" gradientUnits="userSpaceOnUse" x1="155.3811" x2="246.6729" xlink:href="#e" y1="277.0959" y2="368.3878"/><linearGradient id="g" gradientUnits="userSpaceOnUse" x1="267.4254" x2="324.0976" xlink:href="#e" y1="325.0111" y2="381.6833"/><linearGradient id="h" gradientUnits="userSpaceOnUse" x1="307.5565" x2="421.4587" xlink:href="#e" y1="170.7073" y2="284.6094"/><linearGradient id="i" gradientUnits="userSpaceOnUse" x1="250.3443" x2="284.736" xlink:href="#e" y1="113.1206" y2="147.5123"/><linearGradient id="j" gradientUnits="userSpaceOnUse" x1="145.2327" x2="233.32" xlink:href="#e" y1="156.9095" y2="244.9968"/><path d="m512 256c0 141.386719-114.613281 256-256 256s-256-114.613281-256-256 114.613281-256 256-256 256 114.613281 256 256zm0 0" fill="url(#a)"/><path d="m256 61c-107.175781 0-195 87.824219-195 195s87.824219 195 195 195 195-87.824219 195-195-87.824219-195-195-195zm0 0" fill="url(#c)"/><path d="m256 336.742188c-21.316406 0-41.519531-8.46875-56.898438-23.84375-15.375-15.378907-23.84375-35.585938-23.84375-56.898438 0-21.316406 8.46875-41.523438 23.84375-56.898438s35.582032-23.84375 56.898438-23.84375 41.519531 8.464844 56.898438 23.84375c15.375 15.375 23.84375 35.582032 23.84375 56.898438 0 21.3125-8.46875 41.519531-23.84375 56.898438-15.378907 15.375-35.582032 23.84375-56.898438 23.84375zm0 0" fill="url(#d)"/><path d="m279.539062 313.128906-17.597656 39.988282-5.941406 3.65625-57.128906 36.109374c-34.964844-14.625-63.527344-41.59375-79.523438-79.753906l56.671875-22.851562 56.214844 22.851562zm0 0" fill="url(#f)"/><path d="m256 313.128906h23.539062l-17.597656 39.988282-5.941406 3.65625zm0 0" fill="#567ee2"/><path d="m335.980469 313.128906-22.851563 79.523438c-17.597656 7.539062-36.792968 11.882812-57.128906 11.882812-20.339844 0-38.621094-3.886718-57.128906-11.65625l57.128906-56.441406 23.539062-23.308594h.226563l33.363281-33.363281zm0 0" fill="#94bbff"/><path d="m335.980469 313.128906-22.851563 79.523438c-17.597656 7.539062-36.792968 11.882812-57.128906 11.882812v-68.097656l23.535156-23.308594h.230469l33.363281-33.363281zm0 0" fill="url(#g)"/><path d="m359.066406 256.050781-45.9375-23.230469v159.9375c38.792969-16.367187 65.492188-45.433593 79.808594-79.628906zm0 0" fill="#567ee2"/><path d="m392.757812 198.871094-79.628906-22.851563-33.734375 22.851563 33.734375 33.949218 79.808594 80.308594c7.605469-18.160156 11.597656-36.226562 11.597656-57.128906 0-20.320312-4.347656-39.53125-11.777344-57.128906zm0 0" fill="url(#h)"/><path d="m392.652344 198.871094h-160.191406l23.539062-45.933594 57.128906-33.820312c34.964844 14.625 63.527344 41.589843 79.523438 79.753906zm0 0" fill="#67a2f9"/><path d="m392.652344 198.871094h-136.652344v-45.933594l57.128906-33.820312c34.964844 14.625 63.527344 41.589843 79.523438 79.753906zm0 0" fill="#567ee2"/><path d="m313.128906 119.117188-57.128906 56.445312-23.539062 23.308594-33.589844 33.363281-22.851563-33.363281 22.851563-79.523438c17.597656-7.539062 36.789062-11.882812 57.128906-11.882812 20.566406 0 38.617188 3.882812 57.128906 11.652344zm0 0" fill="#94bbff"/><path d="m313.128906 119.117188-57.128906 56.445312v-68.097656c20.566406 0 38.617188 3.882812 57.128906 11.652344zm0 0" fill="url(#i)"/><path d="m119.0625 198.871094 33.625 56.800781 46.183594 23.773437v-160.203124c-38.082032 16.070312-65.175782 44.671874-79.808594 79.628906zm0 0" fill="url(#j)"/><path d="m198.871094 279.765625v-.320313l-79.808594-80.574218c-7.621094 18.199218-11.597656 36.265625-11.597656 57.128906 0 20.320312 4.347656 39.53125 11.777344 57.128906h112.992187zm0 0" fill="#567ee2"/></svg>